# xmcd CD database file
#
# Track frame offsets:
#	150
#	13273
#	26358
#	40685
#	71845
#	82945
#	97298
#	107960
#	125015
#	149050
#	166708
#	186603
#	203638
#
# Disc length: 3133 seconds
#
# Revision: 9
# Processed by: cddbd v1.5.2PL0 Copyright (c) Steve Scherf et al.
# Submitted via: CDex 1.70beta3
#
DISCID=bd0c3b0d
DTITLE=THE BLUE HEARTS - EAST WEST SIDE STORY [CD#1)
DYEAR=1995
DGENRE=Punk Rock
TTITLE0=情熱の薔薇
TTITLE1=首つり台から
TTITLE2=あの娘にタッチ
TTITLE3=TOO MUCH PAIN
TTITLE4=夢
TTITLE5=旅人
TTITLE6=台風
TTITLE7=1000のバイオリン
TTITLE8=パーティー
TTITLE9=夕暮れ
TTITLE10=夜の盗賊団 (Alternative version)
TTITLE11=1001のバイオリン
TTITLE12=TOO MUCH PAIN (Re-mix version)
EXTD=YEAR: 1995
EXTT0=
EXTT1=
EXTT2=
EXTT3=
EXTT4=
EXTT5=
EXTT6=
EXTT7=
EXTT8=
EXTT9=
EXTT10=
EXTT11=
EXTT12=
PLAYORDER=
